# AST/ASF file generated using VICON BodyLanguage
# -----------------------------------------------
:version 1.10
:name VICON
:units
  mass 1.0
  length 0.45
  angle deg
:documentation
   .ast/.asf automatically generated from VICON data using
   VICON BodyBuilder and BodyLanguage model FoxedUp or BRILLIANT.MOD
:root
   order TX TY TZ RX RY RZ
   axis XYZ
   position 0 0 0  
   orientation 0 0 0 
:bonedata
  begin
     id 1 
     name lhipjoint
     direction 0.573633 -0.743009 0.344793 
     length 2.46257 
     axis 0 0 0  XYZ
  end
  begin
     id 2 
     name lfemur
     direction 0.34202 -0.939693 0  
     length 7.3842  
     axis 0 0 20  XYZ
    dof rx ry rz
    limits (-160.0 20.0)
           (-70.0 70.0)
           (-60.0 70.0)
  end
  begin
     id 3 
     name ltibia
     direction 0.34202 -0.939693 0   
     length 7.50407   
     axis 0 0 20   XYZ
    dof rx
    limits (-10.0 170.0)
  end
  begin
     id 4 
     name lfoot
     direction 0.110749 -0.304281 0.946123   
     length 1.95925   
     axis -90 7.62852e-016 20   XYZ
    dof rx rz
    limits (-45.0 90.0)
           (-70.0 20.0)
  end
  begin
     id 5 
     name ltoes
     direction 1.53554e-011 -4.21843e-011 1   
     length 0.978318   
     axis -90 7.62852e-016 20   XYZ
    dof rx
    limits (-90.0 20.0)
  end
  begin
     id 6 
     name rhipjoint
     direction -0.488109 -0.791693 0.367385   
     length 2.31113  
     axis 0 0 0  XYZ 
  end
  begin
     id 7 
     name rfemur
     direction -0.34202 -0.939693 0   
     length 7.40965   
     axis 0 0 -20   XYZ
    dof rx ry rz
    limits (-160.0 20.0)
           (-70.0 70.0)
           (-70.0 60.0)
  end
  begin
     id 8 
     name rtibia
     direction -0.34202 -0.939693 0   
     length 7.55548   
     axis 0 0 -20   XYZ
    dof rx
    limits (-10.0 170.0)
 end
 begin
     id 9 
     name rfoot
     direction -0.127594 -0.350561 0.927808   
     length 2.07199  
     axis -90 -7.62852e-016 -20   XYZ
    dof rx rz
    limits (-45.0 90.0)
           (-20.0 70.0)
  end
  begin
     id 10 
     name rtoes
     direction -1.53542e-011 -4.21909e-011 1   
     length 1.02667   
     axis -90 -7.62852e-016 -20   XYZ
    dof rx
    limits (-90.0 20.0)
  end
  begin
     id 11 
     name lowerback
     direction -0.0103342 0.997298 -0.0727278   
     length 2.02836   
     axis 0 0 0   XYZ
    dof rx ry rz
    limits (-20.0 45.0)
           (-30.0 30.0)
           (-30.0 30.0)
  end
  begin
     id 12 
     name upperback
     direction 0.0171146 0.999786 -0.011606   
     length 2.03179   
     axis 0 0 0   XYZ
    dof rx ry rz
    limits (-20.0 45.0)
           (-30.0 30.0)
           (-30.0 30.0)
  end
  begin
     id 13 
     name thorax
     direction 0.0216927 0.999513 0.0224343   
     length 2.03882   
     axis 0 0 0   XYZ
    dof rx ry rz
    limits (-20.0 45.0)
           (-30.0 30.0)
           (-30.0 30.0)
  end
  begin
     id 14 
     name lowerneck
     direction 0.000989287 0.993907 0.110221   
     length 1.75428   
     axis 0 0 0   XYZ
    dof rx ry rz
    limits (-20.0 45.0)
           (-30.0 30.0)
           (-30.0 30.0)
  end
  begin
     id 15 
     name upperneck
     direction -0.0172474 0.994813 -0.100253   
     length 1.77058   
     axis 0 0 0   XYZ
    dof rx ry rz
    limits (-20.0 45.0)
           (-30.0 30.0)
           (-30.0 30.0)
  end
  begin
     id 16
     name head
     direction -0.00486455 0.99894 -0.0457663  
     length 1.77427  
     axis 0 0 0   XYZ
    dof rx ry rz
    limits (-20.0 45.0)
           (-30.0 30.0)
           (-30.0 30.0)
  end
  begin
     id 17 
     name lclavicle
     direction 0.927314 0.333734 -0.169441  
     length 3.97584  
     axis 0 0 0   XYZ
    dof ry rz
    limits (-20.0 10.0)
           (0.0 20.0)
  end
  begin
     id 18 
     name lhumerus
     direction 1 -4.48965e-011 -3.25313e-028   
     length 4.76468   
     axis 180 -30 -90   XYZ
    dof rx ry rz
    limits (-60.0 90.0)
           (-90.0 90.0)
           (-90.0 90.0)
  end
  begin
     id 19
     name lradius
     direction 1 -4.48969e-011 -2.8465e-028   
     length 3.52712   
     axis -180 -30 -90   XYZ
    dof rx
    limits (-10.0 170.0)
  end
  begin
     id 20
     name lwrist
     direction 1 -4.4896e-011 -7.78665e-028   
     length 1.76356   
     axis 1.91374e-015 90 90   XYZ
    dof ry
    limits (-180.0 0.0)
 end
  begin
     id 21 
     name lhand
     direction 1 -4.48959e-011 -1.55733e-027   
     length 0.859564   
     axis 9.9371e-016 90 90   XYZ
    dof rx rz
    limits (-90.0 90.0)
           (-45.0 45.0)
  end
  begin
     id 22 
     name lfingers
     direction 1 -4.48965e-011 -3.11466e-027   
     length 0.693002   
     axis 1.98742e-015 90 90   XYZ
    dof rx
    limits (0.0 90.0)
  end
  begin
     id 23
     name lthumb
     direction 0.707107 -6.34948e-011 0.707107   
     length 0.995017   
     axis -90 45 2.85299e-015   XYZ
    dof rx rz
    limits (-45.0 45.0)
           (-45.0 45.0)
  end
  begin
     id 24 
     name rclavicle
     direction -0.899388 0.348209 -0.264294   
     length 3.68366  
     axis 0 0 0   XYZ 
    dof ry rz
    limits (-10.0 20.0)
           (-20.0 0.0)
  end
  begin
     id 25 
     name rhumerus
     direction -1 -4.48965e-011 -3.01536e-027  
     length 4.90577   
     axis 180 30 90   XYZ
    dof rx ry rz
    limits (-90.0 60.0)
           (-90.0 90.0)
           (-90.0 90.0)
  end
  begin
     id 26 
     name rradius
     direction -1 -4.48966e-011 3.93291e-027   
     length 3.42692   
     axis -180 30 90   XYZ
    dof rx
    limits (-10.0 170.0)
  end
  begin
     id 27 
     name rwrist
     direction -1 -4.48969e-011 -7.78665e-028   
     length 1.71346   
     axis 1.91374e-015 -90 -90   XYZ
    dof ry
    limits (-180.0 0.0)
  end
  begin
     id 28
     name rhand
     direction -1 -4.48967e-011 -1.55733e-027   
     length 0.740957   
     axis 9.9371e-016 -90 -90   XYZ
    dof rx rz
    limits (-90.0 90.0)
           (-45.0 45.0)
  end
  begin
     id 29
     name rfingers
     direction -1 -4.48949e-011 -3.11466e-027   
     length 0.597378   
     axis 1.98742e-015 -90 -90   XYZ
    dof rx
    limits (0.0 90.0)
  end
  begin
     id 30
     name rthumb
     direction -0.707107 -6.34931e-011 0.707107   
     length 0.857719   
     axis -90 -45 -2.85299e-015   XYZ
    dof rx rz
    limits (-45.0 45.0)
           (-45.0 45.0)
  end
:hierarchy
  begin
    root lhipjoint rhipjoint lowerback
    lhipjoint lfemur
    lfemur ltibia
    ltibia lfoot
    lfoot ltoes
    rhipjoint rfemur
    rfemur rtibia
    rtibia rfoot
    rfoot rtoes
    lowerback upperback
    upperback thorax
    thorax lowerneck lclavicle rclavicle
    lowerneck upperneck
    upperneck head
    lclavicle lhumerus
    lhumerus lradius
    lradius lwrist
    lwrist lhand lthumb
    lhand lfingers
    rclavicle rhumerus
    rhumerus rradius
    rradius rwrist
    rwrist rhand rthumb
    rhand rfingers
  end

#!OML:ASF I:\AllaLogoMonkeySwing\Project 1\Capture day 1\Session 1\Subject1.ASF
:FULLY-SPECIFIED
:DEGREES
234
root -0.783772 18.6762 18.7284 -4.65879 73.7982 -5.5836
lowerback 13.3919 5.60632 1.56546
upperback 0.95974 7.786 1.10907
thorax -6.39837 3.79477 -1.15141
lowerneck -16.7198 7.20196 5.91174
upperneck 21.5311 10.6652 -7.67921
head 10.3997 4.63095 -2.15139
rclavicle -1.4561e-014 1.35174e-014
rhumerus -35.0676 15.7843 -100.518
rradius 61.9807
rwrist -6.68281
rhand -12.1426 -29.6243
rfingers 7.12502
rthumb 13.9196 -59.1384
lclavicle -1.4561e-014 1.35174e-014
lhumerus -54.3467 2.30128 87.4476
lradius 74.5007
lwrist 18.9773
lhand -15.6587 -19.8299
lfingers 7.12502
lthumb 10.5294 9.88636
rfemur -16.6375 -19.4706 24.1191
rtibia 48.7385
rfoot 7.26777 -15.6017
rtoes 9.86252
lfemur -19.4574 -14.9696 -15.1916
ltibia 35.0291
lfoot 15.1611 -29.6086
ltoes -26.5146
235
root -0.726966 19.0578 18.8733 -1.12726 79.8745 -2.0874
lowerback 11.9497 5.19522 0.600847
upperback 0.810631 7.04673 0.583793
thorax -5.81748 3.46456 -0.902278
lowerneck -16.5537 7.32089 6.59275
upperneck 22.1467 10.9949 -8.48037
head 10.7131 4.75879 -2.49526
rclavicle 1.21756e-014 -7.55382e-015
rhumerus -36.4363 14.4319 -99.2073
rradius 60.9452
rwrist -7.27035
rhand -12.0907 -29.8595
rfingers 7.12502
rthumb 13.9696 -59.3701
lclavicle 1.21756e-014 -7.55382e-015
lhumerus -53.4794 2.00694 86.9195
lradius 74.3344
lwrist 19.7715
lhand -16.8396 -20.0169
lfingers 7.12502
lthumb 9.39015 9.7539
rfemur -15.9386 -16.1592 22.6448
rtibia 47.3098
rfoot 4.68665 -13.1857
rtoes 10.4394
lfemur -18.618 -14.3532 -17.2047
ltibia 32.9507
lfoot 6.8975 -25.9616
ltoes -40.3694
236
root -0.679601 19.3912 19.003 5.78832 86.0299 4.68923
lowerback 10.9605 4.62387 -0.279135
upperback 0.436744 6.16062 0.428409
thorax -5.74486 3.05071 -0.367227
lowerneck -16.2823 7.33752 6.48341
upperneck 23.0146 11.1675 -8.2577
head 10.9731 4.86781 -2.37687
rclavicle 6.49529e-014 -3.57812e-015
rhumerus -38.5353 13.3162 -97.7971
rradius 60.5426
rwrist -7.95417
rhand -12.9805 -30.2192
rfingers 7.12502
rthumb 13.112 -59.787
lclavicle 6.49529e-014 -3.57812e-015
lhumerus -52.886 1.81348 86.7287
lradius 74.1386
lwrist 20.0176
lhand -17.5026 -19.9149
lfingers 7.12502
lthumb 8.75033 9.88367
rfemur -15.6685 -13.3594 21.8224
rtibia 46.7398
rfoot 1.80194 -11.555
rtoes 12.4753
lfemur -18.1302 -13.4536 -18.7149
ltibia 32.2798
lfoot 2.6391 -19.1507
ltoes -38.6652
237
root -0.635477 19.6987 19.1238 23.0813 92.177 22.7346
lowerback 10.9284 4.08053 0.997081
upperback 0.395001 5.61491 0.647749
thorax -5.66842 2.75439 -0.756448
lowerneck -16.0465 7.11507 6.17305
upperneck 23.7369 10.9419 -7.72685
head 11.1206 4.81496 -2.17739
rclavicle -1.14575e-013 1.98785e-015
rhumerus -40.5192 11.594 -96.1898
rradius 60.1563
rwrist -8.191
rhand -13.0996 -30.2151
rfingers 7.12502
rthumb 12.9971 -59.7903
lclavicle -1.14575e-013 1.98785e-015
lhumerus -52.1965 0.753086 86.7087
lradius 74.2864
lwrist 19.8311
lhand -17.7634 -19.446
lfingers 7.12502
lthumb 8.49866 10.363
rfemur -14.7892 -10.781 23.0521
rtibia 46.66
rfoot -0.274359 -11.2875
rtoes 17.7554
lfemur -16.9589 -12.1241 -18.3344
ltibia 32.9365
lfoot -0.722657 -13.0234
ltoes -36.0127
238
root -0.597077 19.9726 19.2434 7.01522 98.3205 7.16111
lowerback 10.8802 3.42224 0.738117
upperback 0.231064 4.72462 0.87535
thorax -5.86639 2.3247 -0.24271
lowerneck -15.7751 6.98469 5.87283
upperneck 24.5419 10.9776 -7.54911
head 11.3418 4.84816 -2.06297
rclavicle -3.75952e-014 -6.16232e-015
rhumerus -42.6419 10.0717 -94.2636
rradius 59.6925
rwrist -7.55237
rhand -11.8985 -29.8015
rfingers 7.12502
rthumb 14.1548 -59.2993
lclavicle -3.75952e-014 -6.16232e-015
lhumerus -51.3862 0.274785 87.045
lradius 74.2598
lwrist 19.167
lhand -17.5478 -19.2419
lfingers 7.12502
lthumb 8.70672 10.5586
rfemur -14.6214 -9.49761 23.296
rtibia 46.7688
rfoot -1.3 -10.9363
rtoes 20.4882
lfemur -16.2969 -10.8347 -18.8828
ltibia 34.0646
lfoot -2.30013 -8.64499
ltoes -31.8562
239
root -0.557855 20.1975 19.3725 3.81961 105.008 4.47484
lowerback 10.9 2.67773 0.328497
upperback 0.141696 3.69687 1.03382
thorax -6.01147 1.83367 0.30876
lowerneck -15.4224 6.78786 5.67969
upperneck 25.1173 10.8598 -7.36562
head 11.4558 4.82793 -1.99088
rclavicle -1.86361e-015 6.55989e-015
rhumerus -44.7695 8.40337 -92.6196
rradius 59.3687
rwrist -8.26297
rhand -13.3357 -30.1968
rfingers 7.12502
rthumb 12.7696 -59.7862
lclavicle -1.86361e-015 6.55989e-015
lhumerus -50.2183 -0.290913 87.4473
lradius 74.0332
lwrist 18.2778
lhand -16.6656 -19.5071
lfingers 7.12502
lthumb 9.55804 10.2562
rfemur -14.6401 -9.53512 23.491
rtibia 46.8259
rfoot -1.28382 -10.6438
rtoes 23.588
lfemur -15.7084 -8.75595 -19.6016
ltibia 35.5026
lfoot -2.76819 -5.78578
ltoes -31.2141
240
root -0.504851 20.3882 19.5131 2.89525 111.873 4.03872
lowerback 10.8576 2.01499 0.0220086
upperback 0.0839763 2.7845 1.11642
thorax -6.05967 1.39686 0.712954
lowerneck -14.9508 6.43717 5.66463
upperneck 25.446 10.391 -7.03323
head 11.4262 4.68811 -1.9537
rclavicle -4.20057e-014 8.34896e-015
rhumerus -46.7818 5.52531 -90.525
rradius 58.4957
rwrist -7.75976
rhand -12.7347 -29.9789
rfingers 7.12502
rthumb 13.3489 -59.5313
lclavicle -4.20057e-014 8.34896e-015
lhumerus -48.9253 -1.0983 87.8073
lradius 73.7547
lwrist 17.3357
lhand -15.5392 -20.3222
lfingers 7.12502
lthumb 10.6447 9.38822
rfemur -14.8658 -9.99911 23.9484
rtibia 46.8555
rfoot -0.751368 -10.2965
rtoes 20.3693
lfemur -15.1571 -7.23601 -19.7674
ltibia 37.0137
lfoot -1.78914 -3.01144
ltoes -27.8677
241
root -0.439357 20.538 19.6523 2.65959 118.629 4.19459
lowerback 10.7856 1.38487 -0.357049
upperback 0.0322256 1.91264 1.29296
thorax -6.07808 0.984299 1.25186
lowerneck -14.674 6.10696 5.65119
upperneck 25.8098 9.96793 -6.77217
head 11.4589 4.55516 -1.92739
rclavicle 6.56611e-015 -3.21037e-014
rhumerus -48.931 2.86206 -88.5488
rradius 57.7844
rwrist -8.61328
rhand -13.2426 -31.211
rfingers 7.12502
rthumb 12.8593 -60.7948
lclavicle 6.56611e-015 -3.21037e-014
lhumerus -47.6182 -1.55518 88.2034
lradius 73.5187
lwrist 16.5705
lhand -14.5695 -21.2404
lfingers 7.12502
lthumb 11.5799 8.41965
rfemur -15.3129 -10.3011 24.5057
rtibia 46.7527
rfoot 0.0258983 -9.78001
rtoes 17.7267
lfemur -14.7785 -6.1856 -19.5199
ltibia 38.5369
lfoot -1.67463 -2.22155
ltoes -28.2343
242
root -0.362518 20.6465 19.772 2.8952 124.946 4.25289
lowerback 10.0607 0.894426 -0.842275
upperback -0.0591446 1.21275 1.50222
thorax -5.76168 0.656932 1.86481
lowerneck -14.5333 5.73128 5.45618
upperneck 26.0878 9.50274 -6.50749
head 11.4746 4.38212 -1.87114
rclavicle -2.93176e-014 4.27387e-015
rhumerus -50.9754 0.319523 -86.404
rradius 56.9236
rwrist -9.97584
rhand -12.0188 -30.739
rfingers 7.12502
rthumb 14.0389 -60.2449
lclavicle -2.93176e-014 4.27387e-015
lhumerus -46.1156 -1.80868 88.7171
lradius 73.1926
lwrist 15.9998
lhand -14.0836 -21.66
lfingers 7.12502
lthumb 12.0485 7.97315
rfemur -16.3578 -10.2906 24.9046
rtibia 46.4714
rfoot 0.0745299 -9.28992
rtoes 15.4758
lfemur -15 -5.35654 -19.1074
ltibia 39.8931
lfoot -0.921343 -1.47231
ltoes -28.2898
243
root -0.294697 20.6997 19.8792 2.03126 131.138 4.06673
lowerback 10.57 0.485463 -1.36146
upperback 0.046709 0.621475 1.66514
thorax -5.92088 0.387592 2.41658
lowerneck -14.3618 5.1756 5.04191
upperneck 26.2568 8.77076 -6.08792
head 11.407 4.08654 -1.76228
rclavicle -3.23072e-014 -2.48481e-015
rhumerus -52.9291 -2.0846 -84.2633
rradius 55.7559
rwrist -12.0381
rhand -11.9749 -31.9631
rfingers 7.12502
rthumb 14.0812 -61.4661
lclavicle -3.23072e-014 -2.48481e-015
lhumerus -44.5394 -2.06683 89.3263
lradius 72.6833
lwrist 15.5052
lhand -14.1369 -21.5696
lfingers 7.12502
lthumb 11.9971 8.06661
rfemur -16.3466 -10.4225 24.692
rtibia 46.0361
rfoot -0.571647 -8.80402
rtoes 12.9522
lfemur -14.2522 -4.94587 -18.9306
ltibia 40.9074
lfoot 0.0933338 -1.67928
ltoes -26.9157
244
root -0.218439 20.721 19.9724 1.85619 136.663 3.96644
lowerback 10.4055 0.25284 -1.92583
upperback 0.0469396 0.257542 1.8389
thorax -5.81251 0.227276 2.97504
lowerneck -14.1896 4.62053 4.41942
upperneck 26.353 8.06079 -5.59044
head 11.3074 3.78899 -1.58401
rclavicle 1.45891e-014 -1.79217e-015
rhumerus -54.6632 -4.08134 -82.2441
rradius 54.2146
rwrist -14.0056
rhand -11.9563 -33.2742
rfingers 7.12502
rthumb 14.0991 -62.7759
lclavicle 1.45891e-014 -1.79217e-015
lhumerus -43.1117 -1.92236 89.9098
lradius 72.1442
lwrist 14.9199
lhand -14.446 -21.506
lfingers 7.12502
lthumb 11.6991 8.14731
rfemur -16.9109 -10.1647 24.4969
rtibia 45.4948
rfoot -0.742011 -8.02448
rtoes 12.9559
lfemur -14.015 -3.9245 -18.5741
ltibia 41.452
lfoot 1.01837 -2.14244
ltoes -26.4983
245
root -0.140297 20.6908 20.0401 1.36833 141.772 3.6381
lowerback 10.1345 0.0722683 -2.63859
upperback 0.281877 -0.050841 1.94424
thorax -5.39185 0.0891252 3.53241
lowerneck -14.1218 4.19329 3.69949
upperneck 26.3048 7.50058 -5.01159
head 11.1848 3.55013 -1.33431
rclavicle 9.11995e-014 -8.82107e-015
rhumerus -55.9516 -5.57894 -80.451
rradius 52.3188
rwrist -15.1098
rhand -11.602 -34.3201
rfingers 7.12502
rthumb 14.4405 -63.7977
lclavicle 9.11995e-014 -8.82107e-015
lhumerus -41.691 -1.24194 90.353
lradius 71.6575
lwrist 14.3966
lhand -14.702 -21.6594
lfingers 7.12502
lthumb 11.4522 8.00776
rfemur -17.0729 -9.69652 23.8555
rtibia 44.7896
rfoot -1.29659 -7.38582
rtoes 13.5387
lfemur -13.3789 -2.99667 -18.5251
ltibia 41.5866
lfoot 1.46502 -2.10669
ltoes -25.7294
246
root -0.0623558 20.6187 20.1144 0.994003 147.101 3.21122
lowerback 10.08 -0.183238 -3.42569
upperback 0.379388 -0.482652 1.8764
thorax -5.21804 -0.109565 3.96858
lowerneck -13.9529 3.75232 3.2256
upperneck 26.1784 6.79833 -4.27545
head 11.0175 3.28814 -1.09178
rclavicle -4.48197e-014 1.2921e-015
rhumerus -57.1469 -6.8477 -79.1699
rradius 50.2471
rwrist -15.2179
rhand -11.6541 -35.1958
rfingers 7.12502
rthumb 14.3903 -64.677
lclavicle -4.48197e-014 1.2921e-015
lhumerus -40.3338 -0.633201 90.465
lradius 71.1699
lwrist 14.2133
lhand -14.7226 -21.5663
lfingers 7.12502
lthumb 11.4323 8.102
rfemur -17.2114 -9.16008 23.0473
rtibia 43.9854
rfoot -2.3121 -7.38401
rtoes 13.4045
lfemur -12.9036 -2.34526 -18.5096
ltibia 41.3066
lfoot 2.11037 -2.16262
ltoes -25.3589
247
root 0.00915254 20.4793 20.1678 1.01845 151.967 3.41558
lowerback 9.9788 -0.278748 -3.50355
upperback 0.401889 -0.616633 1.8266
thorax -5.12461 -0.176349 3.97708
lowerneck -13.5203 3.1865 3.00348
upperneck 25.9645 5.90527 -3.67707
head 10.7821 2.95517 -0.971263
rclavicle 1.61761e-014 5.96354e-015
rhumerus -58.4002 -7.90355 -78.2684
rradius 48.2199
rwrist -14.7437
rhand -12.216 -35.7826
rfingers 7.12502
rthumb 13.8488 -65.3015
lclavicle 1.61761e-014 5.96354e-015
lhumerus -39.3251 -0.33365 90.5396
lradius 70.8766
lwrist 14.1735
lhand -14.7411 -21.2174
lfingers 7.12502
lthumb 11.4145 8.45192
rfemur -17.1765 -8.55838 22.7666
rtibia 43.0676
rfoot -2.06924 -6.55569
rtoes 12.894
lfemur -12.4954 -1.67202 -17.984
ltibia 40.7189
lfoot 2.13817 -2.749
ltoes -23.8224
248
root 0.0799301 20.3025 20.214 1.28684 156.646 3.92188
lowerback 9.82304 -0.332081 -3.29776
upperback 0.389307 -0.655043 1.8732
thorax -5.04834 -0.200234 3.91181
lowerneck -12.7175 2.62961 2.26995
upperneck 25.1084 4.92376 -2.51089
head 10.2181 2.58595 -0.584413
rclavicle -4.83295e-014 1.63003e-014
rhumerus -59.4831 -8.57104 -77.6702
rradius 46.4214
rwrist -14.5985
rhand -12.7511 -35.9531
rfingers 7.12502
rthumb 13.3332 -65.5066
lclavicle -4.83295e-014 1.63003e-014
lhumerus -38.6497 -0.0409536 90.6397
lradius 70.8607
lwrist 14.0358
lhand -14.8724 -21.0353
lfingers 7.12502
lthumb 11.2878 8.64094
rfemur -17.2121 -7.89544 22.8201
rtibia 42.1637
rfoot -2.15634 -5.985
rtoes 12.2118
lfemur -12.2744 -1.02637 -17.1443
ltibia 39.7854
lfoot 1.49467 -3.66293
ltoes -24.7152
